# xmcd
#
# Track frame offsets:
#	150
#	14093
#	27759
#	41440
#
# Disc length: 736 seconds
#
# Revision: 0
# Processed by: cddbd v1.5.2PL0 Copyright (c) Steve Scherf et al.
# Submitted via: audiograbber 1.83.01
#
DISCID=2802de04
DTITLE=6-Zylinder - Thank God I'm A Country Boy
DYEAR=2008
DGENRE=Country
TTITLE0=Thank God I'm A Country Boy ( Live Version )
TTITLE1=Thank God I'm A Country Boy ( Acoustic Version )
TTITLE2=Thank God I'm A Country Boy ( Radio Dance Version )
TTITLE3=Thank God I'm A Country Boy ( Threshing Floor Version )
EXTD=
EXTT0=
EXTT1=
EXTT2=
EXTT3=
PLAYORDER=
